PathFileType	4	(X/Y/Z)	15_2_72_p1_0-261_filt_butterworth.trc
DataRate	CameraRate	NumFrames	NumMarkers	Units	OrigDataRate	OrigDataStartFrame	OrigNumFrames
59.0	59.0	6	27	m	59.0	130	261
Frame#	Time	RHip			RKnee			RAnkle			RBigToe			RSmallToe			RHeel			LHip			LKnee			LAnkle			LBigToe			LSmallToe			LHeel			Neck			Head			Nose			RShoulder			RElbow			RWrist			RThumb			RIndex			RPinky			LShoulder			LElbow			LWrist			LThumb			LIndex			LPinky			
		X1	Y1	Z1	X2	Y2	Z2	X3	Y3	Z3	X4	Y4	Z4	X5	Y5	Z5	X6	Y6	Z6	X7	Y7	Z7	X8	Y8	Z8	X9	Y9	Z9	X10	Y10	Z10	X11	Y11	Z11	X12	Y12	Z12	X13	Y13	Z13	X14	Y14	Z14	X15	Y15	Z15	X16	Y16	Z16	X17	Y17	Z17	X18	Y18	Z18	X19	Y19	Z19	X20	Y20	Z20	X21	Y21	Z21	X22	Y22	Z22	X23	Y23	Z23	X24	Y24	Z24	X25	Y25	Z25	X26	Y26	Z26	X27	Y27	Z27	
130	2.2033898305084745	0.2638277685884558	0.23847254421848763	1.0817454776678466	0.2310496159829017	0.2009815408604196	1.5226073162342937	0.2487430017692453	0.20055414961918414	1.945686494062195	0.23172174067002904	0.02126184997253175	1.8942613325630646	0.28858037490437066	0.059433762183982546	1.9107097075810717	0.24287531896325248	0.2661793664937381	2.0349002667657485	0.06881951372106357	0.26304201492026014	1.1220191625176328	0.09673806825506512	0.21916961985652722	1.502735996950327	0.08286875980216321	0.21173830233592317	1.963255462023951	0.08133579719813729	0.023781796808447397	1.8937079036583548	0.04209127063526031	0.07137939344286164	1.9166393791153906	0.09314478251250127	0.234424609097781	2.022271977122019	0.07575278751598924	0.42339470070480856	0.545677796616765	0.022369504136191785	0.44882936525042294	0.31243771701324996	0.05176044222086311	0.360373464003804	0.4161186788830508	0.24864882335487176	0.3977005037446346	0.5915106417343016	0.31380078113254506	0.2526444721357599	0.8080538130313693	0.2447502085290664	0.08166525033279522	0.985900276946166	0.18931932697762938	0.06041117348551116	1.10024113652588	0.1895021109537609	0.0643499962947482	1.1095675592362206	0.19316134962894413	0.05473390116364578	1.0959042528486305	-0.043565622831872805	0.38141443373393646	0.6543732316592605	0.0035294560498258633	0.24251654414350665	0.8682291217509066	0.11463327222494231	0.07655883223093694	1.0204748813606166	0.22112892727862254	0.03714143564550869	1.0349277514496915	0.2220641704757998	0.02613297196093292	1.0748045975127567	0.17589502923675446	0.06272859896702754	1.1185806519489587
131	2.2203389830508478	0.2633221253970683	0.24072957384449772	1.0833683626660013	0.23093763545661772	0.20144378248538572	1.5213045941025882	0.24875248982515344	0.20051915374698162	1.9456317269085899	0.2316535085063069	0.018982307526590077	1.890960554446016	0.2885774157470897	0.05949746042091207	1.9106562416531068	0.24039084272233685	0.26250871913776413	2.0315090627314634	0.06564913826536614	0.2659645664613133	1.121943754509921	0.09688145444945126	0.21979902687250016	1.5029753848718126	0.08477191704757764	0.2124238198624622	1.9654092399220668	0.0809469757261528	0.022741883390135373	1.89274339016822	0.042060643691092234	0.0712478607533669	1.9165648289130728	0.09496528833112854	0.23542436162037592	2.022953824538092	0.07869692084264139	0.4255707796171969	0.5466297896989087	0.02262964946762378	0.4505896977511975	0.31219252715683765	0.048868029403133936	0.36862532115351565	0.4187262189379355	0.248602387832166	0.39766789333456853	0.5915678392082377	0.3140235765751485	0.25230477846586385	0.8112764539746852	0.24083367053812185	0.0763717646686803	0.9839094769388226	0.1872313726778824	0.05687697684166849	1.099356768103755	0.18896266992294333	0.06306348063644886	1.1091409413940376	0.19363585988939763	0.05911443295008706	1.1004655613265635	-0.042709184917937765	0.3845571421791602	0.6545376342031548	0.001634944667803263	0.24231126311657925	0.8662491554960505	0.11159415452371695	0.07721123983260698	1.0202511049124372	0.2178566040741283	0.03707382985778659	1.0385614679687605	0.2183672417984266	0.025150078502117756	1.0745237788337971	0.17510029599830954	0.0628528481741706	1.11831853277442
132	2.23728813559322	0.2626460403034272	0.24454449102943085	1.086080326686198	0.23104396273187372	0.20212067580527193	1.5200635495099295	0.24831005630955996	0.1993715200884416	1.9445710116497474	0.23152774200949078	0.017032212637182256	1.8897377299873597	0.288600168849706	0.059642255922179005	1.910621081930629	0.23785282713651612	0.2603340987314484	2.029774000300645	0.06250768162365127	0.26981888329968784	1.1218020961837634	0.09724261249036353	0.22054396961897182	1.5032893762364974	0.08641797966172934	0.21294895715507445	1.9679857973907442	0.08088770892864074	0.02264569705385788	1.8926404555561418	0.04201032237253053	0.07121652967156551	1.9165491011597302	0.09691941761441375	0.2365472265500211	2.023015809615786	0.08222293051718367	0.4289435938741249	0.5482424340240087	0.023449752834689537	0.4540123367000359	0.312154782048049	0.04604418201871155	0.3779341250377346	0.42198478780584536	0.24903634831146035	0.3977186552975709	0.5919840460271797	0.31409449755790875	0.25204230938427535	0.8133412556638882	0.23663608567317307	0.0704123435576025	0.9824790020919205	0.18557284117611506	0.055030612620375265	1.0986816155425554	0.18858369342300374	0.06277258923510276	1.109743214099412	0.19423182100521527	0.062182909761040954	1.1045305009391448	-0.04158937738908611	0.38850322391346637	0.6548323794885645	-0.00031277989618037677	0.2432495252381938	0.8651562694518804	0.10849625750349855	0.07820431240933416	1.0204796330970662	0.21421921374710673	0.036868293944676944	1.0412209721937036	0.21567826649385538	0.021315772593480053	1.0719072722303158	0.17456847771044198	0.06289299875753761	1.117505440947037
133	2.254237288135593	0.26176031682847073	0.24782600756017048	1.0879249410806642	0.23122844122009728	0.20296650141367048	1.5193260319437647	0.24714269646457443	0.19644446057966536	1.9419345315553156	0.23186793256490082	0.01490923579385144	1.8888390231407293	0.2886773826367551	0.05984523746996304	1.910719933827806	0.2366441231208108	0.25952466728972046	2.0294445638557903	0.06047473598710941	0.27274778002938316	1.121669105660131	0.09757627046669347	0.2210352705060001	1.5035640351888409	0.08724378354762172	0.21315860469084993	1.9698709476310303	0.08091196454192232	0.0227987506542007	1.8928215968303252	0.04192972190437267	0.07135744076273719	1.9166230164838933	0.09809694287283403	0.23709833273360892	2.023547111623518	0.08512576031284386	0.43217513510203565	0.549185883384986	0.02455326462842358	0.45805080404730913	0.3123764824439089	0.04284753648366425	0.38857202658185647	0.42584569963215346	0.2504449360795941	0.3980406709568971	0.5929011453930291	0.3140329043402109	0.2517802794634756	0.8143148567023123	0.2322037214131771	0.06447198245181839	0.9816073586097476	0.18439650429878462	0.05450929579801496	1.0993032675194088	0.18679065599186326	0.0638879057686406	1.111735384813133	0.19245599541482336	0.06434373338949873	1.1074495811870118	-0.04064892848398869	0.39167421720544593	0.6552585732053536	-0.0019523858850335521	0.24618990304935626	0.8651715138355671	0.10566393889505481	0.08055535895890575	1.021807589294236	0.21081177263155945	0.03669490170605096	1.042721770197477	0.21326867184393797	0.018492721977057563	1.07004364568725	0.1732175291610202	0.06279715069409503	1.117602729515017
134	2.2711864406779663	0.2600997913447463	0.24743750374363574	1.0871175875186707	0.2308922808709624	0.20367592234271786	1.519390313585016	0.24558577245511196	0.19256899445541714	1.938490267976118	0.23288954459305825	0.013085626719516765	1.8871481121790163	0.2887941910125021	0.06005007433712565	1.9109385030234514	0.236507220606345	0.2593909109564456	2.029680880776432	0.05971402711181438	0.2739183910559195	1.1216294964363258	0.09776507225678208	0.22114517119311825	1.5037185916335862	0.08740793539936478	0.21318618900954733	1.9705280387229451	0.08089761464288765	0.022953771019168914	1.8931059680744353	0.04182800369705211	0.07162717178130103	1.9167546198881387	0.09827509830322695	0.23695111461538426	2.024839668090224	0.08755108900621325	0.4350282786449567	0.549213893690149	0.025372300096365083	0.46091537858672915	0.31240429967220984	0.03960218386840989	0.3990215641615832	0.4294862067910239	0.25272510983681695	0.3987571366876493	0.5940573504187753	0.31394009582374555	0.2515312443830637	0.8147855655721451	0.22739117230406747	0.059460762898232405	0.981278986700169	0.1828784201149805	0.05447097141850944	1.1007683982221572	0.18274968805158906	0.06641791049660847	1.1143434424239544	0.1881569457473597	0.06730436033008413	1.1095683800046086	-0.0399387703757363	0.3940487575662907	0.655797107999503	-0.0032183976475978256	0.25034987415520055	0.8654617802121685	0.10333302289236887	0.08383332454023867	1.0237911232391017	0.20771767472901442	0.03898815818221841	1.0449127955846789	0.21015196036276795	0.02229057359059369	1.0731551578483727	0.1703234531348773	0.06261154784558311	1.1186952056160075
135	2.288135593220339	0.2573335432963027	0.2428417110958911	1.0835827417837303	0.2293802679130882	0.20397287857557028	1.5204054476389963	0.24440084087512481	0.18963362904787312	1.9359401018003193	0.23403266688019958	0.01233304682146687	1.8859042558312127	0.2887961965887764	0.059972955551968965	1.9109480656628126	0.23670290399231658	0.25946296989911405	2.029953540232563	0.059426436362106504	0.2740299950607949	1.1216269591140744	0.09787046978983442	0.22091288315675428	1.503698264822823	0.0872797333430788	0.21319190266459995	1.9699126683448955	0.08083082573671165	0.02315645930385619	1.8934376049627222	0.04180913174826953	0.07161075613368413	1.916730463075252	0.09800562336256956	0.23660861380788606	2.026101770654932	0.09036946271926251	0.43860245535049736	0.5490760210340958	0.025619406666439304	0.4621024693020284	0.31142451341580274	0.03696368541378152	0.4071192225985455	0.432094065828878	0.25506446397470506	0.39966179746487923	0.5950759826369866	0.3139561439596071	0.2513717981336183	0.8152424252854467	0.2223827309962922	0.056311255039611485	0.9815116844568972	0.1806631361830971	0.054697550112218746	1.1020051315293395	0.17762396567469085	0.06954800338331792	1.1167453232126707	0.18337332892276842	0.07133284151674908	1.1111097699211308	-0.039172052215896966	0.3970492439508884	0.6560399262552753	-0.003975000605529254	0.25374817247963755	0.8649178090228645	0.10145325997561766	0.08652313455738142	1.025502497489573	0.20438033065603892	0.045222879558459175	1.0488571204105241	0.20612132264091942	0.03323291045595486	1.0814044685683935	0.16635235004918864	0.062308165395328206	1.1193260398062468
